<svg width="100" height="100" xmlns="http://www.w3.org/2000/svg">
 <g>
  <title>background</title>
  <rect x="-1" y="-1" width="102" height="102" id="canvas_background" fill="none"/>
 </g>

 <g>
  <title>Layer 1</title>
  <g stroke="null" id="svg_6">
   <path stroke="null" id="svg_5" d="m96.086431,53.857696l-7.340815,0c-2.026065,0 -3.670408,-1.642507 -3.670408,-3.670408c0,-2.026065 1.644343,-3.666737 3.670408,-3.666737l7.340815,0c2.026065,0 3.670408,1.642507 3.670408,3.666737c0,2.0279 -1.644343,3.670408 -3.670408,3.670408zm-14.419196,-24.430233c-1.433294,1.433294 -3.756662,1.433294 -5.189956,0c-1.433294,-1.431459 -1.433294,-3.756662 0,-5.188121l5.189956,-5.189956c1.433294,-1.433294 3.756662,-1.433294 5.189956,0c1.433294,1.431459 1.433294,3.756662 0,5.189956l-5.189956,5.188121zm-5.408346,28.642025l0,0c3.209771,3.828235 5.149582,8.753922 5.149582,14.140245c0,12.158225 -9.858715,22.018775 -22.02061,22.018775c-5.09269,0 -23.492443,0 -29.35959,0c-16.214025,0 -29.35959,-13.143729 -29.35959,-29.35959s13.145565,-29.35959 29.35959,-29.35959c2.88494,0 5.67078,0.425767 8.300627,1.200223c4.028272,-5.188121 10.310175,-8.541038 17.388556,-8.541038c12.161895,0 22.02061,9.86055 22.02061,22.018775c-0.001835,2.780334 -0.53955,5.434038 -1.479174,7.8822zm-68.251228,6.79943c0,12.161895 9.856879,22.018775 22.018775,22.018775c6.636097,0 23.81911,0 29.35959,0c8.10793,0 14.679795,-6.5737 14.679795,-14.67796c0,-8.10793 -6.571865,-14.68163 -14.679795,-14.68163c-2.936326,0 -5.657933,0.884568 -7.951938,2.369248c-2.259136,-9.755943 -10.963507,-17.047208 -21.407652,-17.047208c-12.161895,0 -22.018775,9.856879 -22.018775,22.018775zm47.707957,-29.35959c-4.059471,0 -7.735384,1.648013 -10.390924,4.310894c4.294377,2.635353 7.863848,6.336959 10.330362,10.743283c1.218575,-0.207378 2.453667,-0.376217 3.730969,-0.376217c3.899808,0 7.559204,1.025879 10.735942,2.802356l0,0c0.17618,-0.906591 0.275281,-1.842545 0.275281,-2.802356c0,-8.10426 -6.5737,-14.67796 -14.68163,-14.67796zm0,-14.68163c-2.026065,0 -3.668572,-1.642507 -3.668572,-3.668572l0,-7.33898c0,-2.0279 1.644343,-3.670408 3.668572,-3.670408c2.0279,0 3.670408,1.642507 3.670408,3.670408l0,7.33898c0,2.0279 -1.640672,3.668572 -3.670408,3.668572zm-25.949781,8.599765l-5.188121,-5.188121c-1.433294,-1.433294 -1.433294,-3.758497 0,-5.189956c1.431459,-1.433294 3.756662,-1.433294 5.188121,0l5.189956,5.189956c1.433294,1.431459 1.433294,3.756662 0,5.188121c-1.431459,1.433294 -3.756662,1.433294 -5.189956,0z" clip-rule="evenodd" fill-rule="evenodd"/>
  </g>
 </g>
</svg>