<svg width="580" height="400" xmlns="http://www.w3.org/2000/svg">
 <!-- Created with Method Draw - http://github.com/duopixel/Method-Draw/ -->

 <g>
  <title>background</title>
  <rect fill="#ffffff" id="canvas_background" height="402" width="582" y="-1" x="-1"/>
  <g display="none" overflow="visible" y="0" x="0" height="100%" width="100%" id="canvasGrid">
   <rect fill="url(#gridpattern)" stroke-width="0" y="0" x="0" height="100%" width="100%"/>
  </g>
 </g>
 <g>
  <title>Layer 1</title>
  <g stroke="null" id="svg_24">
   <path stroke="null" id="svg_23" d="m453.9364,170.67364l0,0c5.251818,7.490437 9.38007,15.780989 12.503923,24.548206l0.161725,0l0,0l-37.341532,0l0,0l0,0c-11.780415,-20.334835 -33.723991,-34.03893 -58.910586,-34.03893c-13.618977,0 -26.233554,4.085693 -36.881891,10.9803c-10.4781,-45.24905 -50.849854,-79.075184 -99.290852,-79.075184c-56.399587,0 -102.125302,45.725714 -102.125302,102.133814l0,0l-34.047442,0l0,0c0,-75.202287 60.970456,-136.172744 136.172744,-136.172744c17.049257,0 33.315422,3.20046 48.347367,8.92043l0,0c13.916892,-39.861043 51.7436,-68.494941 96.337237,-68.494941c6.434967,0 12.699696,0.663925 18.794188,1.796003c-1.123566,4.902832 -1.770467,9.984412 -1.770467,15.227718c0,37.6054 30.489484,68.07786 68.086372,68.07786c5.243306,0 10.316375,-0.646901 15.219207,-1.761955c1.140589,6.103004 1.804514,12.359221 1.804514,18.785676c0,26.676171 -10.316375,50.883902 -27.059204,69.073748zm-90.285304,-135.389653c-24.684395,5.643363 -44.048878,24.769514 -50.424261,49.147482l0,0c16.308725,11.678273 29.970261,26.837896 39.818483,44.448935c5.651875,-0.970352 11.388869,-1.744931 17.304612,-1.744931c22.292563,0 42.840194,7.218058 59.634094,19.330435l0,0c7.303176,-8.341623 12.640113,-18.462225 15.193671,-29.638298c-41.308059,-7.703234 -73.84039,-40.227053 -81.5266,-81.543623zm-248.622932,193.976788l340.440371,0c9.397094,0 17.015209,7.626627 17.015209,17.023721s-7.626627,17.023721 -17.015209,17.023721l-340.440371,0c-9.397094,0 -17.023721,-7.626627 -17.023721,-17.023721s7.626627,-17.023721 17.023721,-17.023721zm0,68.094884l340.440371,0c9.397094,0 17.015209,7.618115 17.015209,17.015209s-7.626627,17.023721 -17.015209,17.023721l-340.440371,0c-9.397094,0 -17.023721,-7.626627 -17.023721,-17.023721s7.626627,-17.015209 17.023721,-17.015209zm0,68.07786l340.440371,0c9.397094,0 17.015209,7.626627 17.015209,17.023721s-7.626627,17.023721 -17.015209,17.023721l-340.440371,0c-9.397094,0 -17.023721,-7.626627 -17.023721,-17.023721s7.626627,-17.023721 17.023721,-17.023721z" clip-rule="evenodd" fill-rule="evenodd"/>
  </g>
 </g>
</svg>