<svg width="580" height="400" xmlns="http://www.w3.org/2000/svg">
 <!-- Created with Method Draw - http://github.com/duopixel/Method-Draw/ -->

 <g>
  <title>background</title>
  <rect fill="#ffffff" id="canvas_background" height="402" width="582" y="-1" x="-1"/>
  <g display="none" overflow="visible" y="0" x="0" height="100%" width="100%" id="canvasGrid">
   <rect fill="url(#gridpattern)" stroke-width="0" y="0" x="0" height="100%" width="100%"/>
  </g>
 </g>
 <g>
  <title>Layer 1</title>
  <g stroke="null" id="svg_30">
   <path stroke="null" id="svg_29" d="m469.659853,183.425805c8.041118,-9.992113 14.045008,-21.698082 16.987669,-34.611298c-52.321159,-9.744196 -93.518412,-50.94145 -103.251829,-103.262608c-27.583404,6.305702 -49.863552,25.912663 -60.297602,51.642083l-187.058382,0c24.716196,-13.700081 53.140361,-21.547177 83.407731,-21.547177c21.579514,0 42.188919,4.052896 61.224594,11.296369c17.623629,-50.477953 65.514628,-86.738435 121.996472,-86.738435c8.138128,0 16.071456,0.84076 23.789204,2.274364c-1.412046,6.208691 -2.231248,12.643741 -2.231248,19.283591c0,47.621524 38.59952,86.210265 86.210265,86.210265c6.63985,0 13.0749,-0.819202 19.283591,-2.231248c1.433604,7.728527 2.274364,15.651076 2.274364,23.789204c0,19.283591 -4.365486,37.489285 -11.953886,53.894889l-50.380943,0zm51.555851,107.768221c0,7.372821 -0.754528,14.530062 -1.940216,21.557956l-459.615617,0c-2.824092,-6.96322 -5.098457,-14.174356 -6.995557,-21.557956l468.55139,0zm-7.512948,43.115912c-2.662408,7.534506 -5.982333,14.734863 -9.91666,21.557956l-418.838744,0c-5.443384,-6.779977 -10.304703,-14.001892 -14.680968,-21.557956l443.436371,0zm-25.600072,43.115912c-7.329705,8.170465 -15.597181,15.457054 -24.78087,21.547177l-327.282106,0c-10.951442,-6.057786 -21.072902,-13.355154 -30.37516,-21.547177l382.438136,0zm-439.599055,-107.789779c-0.883876,-7.071009 -1.498278,-14.228251 -1.498278,-21.547177l466.557279,0c2.468386,6.96322 4.494834,14.120461 5.755974,21.547177l-470.814975,0zm449.224683,-52.633749c2.11268,3.028893 3.815758,6.338039 5.680521,9.528616l-454.905204,0c0.916213,-7.351263 2.349817,-14.519283 4.160685,-21.547177l454.765077,0c-3.028893,4.160685 -6.208691,8.235139 -9.70108,12.01856zm-34.719088,-33.576516l-403.349353,0c3.028893,-7.469832 6.607513,-14.648631 10.606514,-21.557956l298.308213,0c0.431159,0.754528 0.980887,1.444383 1.401267,2.20969c7.157241,-1.228803 14.411493,-2.20969 21.913662,-2.20969c26.333043,0 50.693533,8.030339 71.119696,21.557956zm-357.355454,-64.673867l227.555002,0c7.426716,6.54284 14.163577,13.829429 20.383047,21.557956l-268.644466,0c6.262586,-7.793201 13.215027,-14.961221 20.706417,-21.557956z" clip-rule="evenodd" fill-rule="evenodd"/>
  </g>
 </g>
</svg>