<svg width="100" height="100" xmlns="http://www.w3.org/2000/svg">
 <!-- Created with Method Draw - http://github.com/duopixel/Method-Draw/ -->

 <g>
  <title>background</title>
  <rect fill="#fff" id="canvas_background" height="102" width="102" y="-1" x="-1"/>
  <g display="none" overflow="visible" y="0" x="0" height="100%" width="100%" id="canvasGrid">
   <rect fill="url(#gridpattern)" stroke-width="0" y="0" x="0" height="100%" width="100%"/>
  </g>
 </g>
 <g>
  <title>Layer 1</title>
  <g id="svg_8">
   <g transform="matrix(1.7777778837415923,0,0,1.7777778837415923,0,0) " id="svg_5">
    <g id="svg_6">
     <path id="svg_7" d="m173.122497,99.274996c-0.696,0 -1.369,0.092 -2.033,0.205c-2.736,-4.892 -7.961,-8.203 -13.965,-8.203c-8.835,0 -15.998,7.162 -15.998,15.997c0,5.992 3.3,11.207 8.177,13.947c0.276,-1.262 0.892,-2.465 1.873,-3.445l0.057,-0.057c-3.644,-2.061 -6.106,-5.963 -6.106,-10.445c0,-6.626 5.372,-11.998 11.998,-11.998c5.691,0 10.433,3.974 11.665,9.29c1.25,-0.81 2.733,-1.291 4.333,-1.291c4.418,0 7.999,3.581 7.999,7.999c0,3.443 -2.182,6.371 -5.235,7.498c0.788,1.146 1.194,2.471 1.222,3.807c4.665,-1.645 8.014,-6.078 8.014,-11.305c-0.002,-6.627 -5.374,-11.999 -12.001,-11.999zm-16.998,19.208l-2.121,2.121c-1.171,1.172 -1.171,3.07 0,4.242c1.172,1.172 3.071,1.172 4.242,0c1.172,-1.172 1.172,-3.07 0,-4.242l-2.121,-2.121zm7,7.998l-2.121,2.121c-1.172,1.172 -1.172,3.072 0,4.242c1.171,1.172 3.07,1.172 4.241,0c1.172,-1.17 1.172,-3.07 0,-4.242l-2.12,-2.121zm6.999,-7.998l-2.121,2.121c-1.172,1.172 -1.172,3.07 0,4.242c1.171,1.172 3.07,1.172 4.242,0c1.171,-1.172 1.171,-3.07 0,-4.242l-2.121,-2.121z" clip-rule="evenodd" fill-rule="evenodd"/>
    </g>
   </g>
  </g>
  <g stroke="null" id="svg_22">
   <path stroke="null" id="svg_21" d="m87.353899,39.592651l0,0c2.647279,3.768844 4.215536,8.349855 4.215536,13.309877c0,10.096015 -6.462532,18.664381 -15.465988,21.853105l0,-8.47168c4.619686,-2.678219 7.73106,-7.659512 7.73106,-13.381425c0,-8.543228 -6.92276,-15.469856 -15.465988,-15.469856c-3.093971,0 -5.963629,0.932059 -8.380794,2.496448c-2.37849,-10.279719 -11.550181,-17.96437 -22.55505,-17.96437c-12.814842,0 -23.200916,10.388008 -23.200916,23.20285c0,6.862815 2.995351,13.012082 7.73106,17.260492l0,9.502359c-9.23357,-5.35257 -15.465988,-15.319025 -15.465988,-26.762851c0,-17.086456 13.849388,-30.935844 30.935844,-30.935844c3.871331,0 7.568627,0.725149 10.983598,2.024617l0,0c3.161652,-9.053733 11.753223,-15.560741 21.885978,-15.560741c1.461901,0 2.881261,0.150831 4.267746,0.409951c-0.253319,1.111896 -0.400283,2.268268 -0.400283,3.457513c0,8.543228 6.92276,15.467922 15.465988,15.467922c1.189245,0 2.345617,-0.146964 3.459447,-0.402216c0.257186,1.386486 0.408017,2.809713 0.408017,4.26968c-0.001934,6.058382 -2.343683,11.55985 -6.149268,15.694169zm-20.513029,-30.761808c-5.607823,1.283998 -10.005129,5.62716 -11.455428,11.167302l0,0c3.708898,2.65308 6.812538,6.095123 9.049866,10.096015c1.283998,-0.218512 2.583466,-0.396415 3.931277,-0.396415c5.060577,0 9.732473,1.641738 13.547726,4.391505l0,0c1.657208,-1.893124 2.869658,-4.192331 3.451712,-6.733255c-9.384401,-1.750027 -16.775125,-9.136884 -18.525152,-18.525152zm-33.277594,44.071685c2.136774,0 3.867464,1.73069 3.867464,3.867464l0,7.73106c0,2.136774 -1.73069,3.867464 -3.867464,3.867464c-2.13484,0 -3.867464,-1.73069 -3.867464,-3.867464l0,-7.73106c0,-2.138708 1.734558,-3.867464 3.867464,-3.867464zm0,23.200916c2.136774,0 3.867464,1.73069 3.867464,3.867464l0,7.73106c0,2.136774 -1.73069,3.867464 -3.867464,3.867464c-2.13484,0 -3.867464,-1.73069 -3.867464,-3.867464l0,-7.73106c0,-2.138708 1.734558,-3.867464 3.867464,-3.867464zm15.469856,-15.469856c2.13484,0 3.863596,1.732624 3.863596,3.867464l0,7.734928c0,2.13484 -1.73069,3.867464 -3.863596,3.867464c-2.136774,0 -3.867464,-1.732624 -3.867464,-3.867464l0,-7.734928c0,-2.13484 1.73069,-3.867464 3.867464,-3.867464zm0,23.204784c2.13484,0 3.863596,1.73069 3.863596,3.863596l0,7.734928c0,2.136774 -1.73069,3.867464 -3.863596,3.867464c-2.136774,0 -3.867464,-1.73069 -3.867464,-3.867464l0,-7.734928c0,-2.13484 1.73069,-3.863596 3.867464,-3.863596zm15.465988,-30.935844c2.136774,0 3.867464,1.73069 3.867464,3.867464l0,7.73106c0,2.136774 -1.73069,3.867464 -3.867464,3.867464c-2.13484,0 -3.867464,-1.73069 -3.867464,-3.867464l0,-7.73106c0,-2.138708 1.734558,-3.867464 3.867464,-3.867464zm0,23.200916c2.136774,0 3.867464,1.73069 3.867464,3.867464l0,7.73106c0,2.136774 -1.73069,3.867464 -3.867464,3.867464c-2.13484,0 -3.867464,-1.73069 -3.867464,-3.867464l0,-7.73106c0,-2.138708 1.734558,-3.867464 3.867464,-3.867464z" clip-rule="evenodd" fill-rule="evenodd"/>
  </g>
 </g>
</svg>