<svg width="99.99999999999999" height="99.99999999999999" xmlns="http://www.w3.org/2000/svg">
 <!-- Created with Method Draw - http://github.com/duopixel/Method-Draw/ -->

 <g>
  <title>background</title>
  <rect fill="#fff" id="canvas_background" height="102" width="102" y="-1" x="-1"/>
  <g display="none" overflow="visible" y="0" x="0" height="100%" width="100%" id="canvasGrid">
   <rect fill="url(#gridpattern)" stroke-width="0" y="0" x="0" height="100%" width="100%"/>
  </g>
 </g>
 <g>
  <title>Layer 1</title>
  <g id="svg_8">
   <g transform="matrix(1.7777778837415923,0,0,1.7777778837415923,0,0) " id="svg_5">
    <g id="svg_6">
     <path id="svg_7" d="m173.122497,99.274996c-0.696,0 -1.369,0.092 -2.033,0.205c-2.736,-4.892 -7.961,-8.203 -13.965,-8.203c-8.835,0 -15.998,7.162 -15.998,15.997c0,5.992 3.3,11.207 8.177,13.947c0.276,-1.262 0.892,-2.465 1.873,-3.445l0.057,-0.057c-3.644,-2.061 -6.106,-5.963 -6.106,-10.445c0,-6.626 5.372,-11.998 11.998,-11.998c5.691,0 10.433,3.974 11.665,9.29c1.25,-0.81 2.733,-1.291 4.333,-1.291c4.418,0 7.999,3.581 7.999,7.999c0,3.443 -2.182,6.371 -5.235,7.498c0.788,1.146 1.194,2.471 1.222,3.807c4.665,-1.645 8.014,-6.078 8.014,-11.305c-0.002,-6.627 -5.374,-11.999 -12.001,-11.999zm-16.998,19.208l-2.121,2.121c-1.171,1.172 -1.171,3.07 0,4.242c1.172,1.172 3.071,1.172 4.242,0c1.172,-1.172 1.172,-3.07 0,-4.242l-2.121,-2.121zm7,7.998l-2.121,2.121c-1.172,1.172 -1.172,3.072 0,4.242c1.171,1.172 3.07,1.172 4.241,0c1.172,-1.17 1.172,-3.07 0,-4.242l-2.12,-2.121zm6.999,-7.998l-2.121,2.121c-1.172,1.172 -1.172,3.07 0,4.242c1.171,1.172 3.07,1.172 4.242,0c1.171,-1.172 1.171,-3.07 0,-4.242l-2.121,-2.121z" clip-rule="evenodd" fill-rule="evenodd"/>
    </g>
   </g>
  </g>
  <g stroke="null" id="svg_28">
   <path stroke="null" id="svg_27" d="m88.940492,40.632507c2.753084,3.919474 4.382008,8.683576 4.382008,13.839826l0,0c0,10.511591 -6.734899,19.426434 -16.114287,22.734559c-0.054297,-2.68672 -0.872782,-5.349308 -2.459475,-7.655946c6.14366,-2.266417 10.52969,-8.154678 10.52969,-15.078613l0,0l0,0c0,-8.882667 -7.201456,-16.088144 -16.086133,-16.088144c-3.21964,0 -6.199969,0.969311 -8.715752,2.596224c-2.475563,-10.690572 -12.011811,-18.682357 -23.456514,-18.682357c-13.327016,0 -24.130205,10.803189 -24.130205,24.130205c0,2.823469 0.510799,5.522255 1.403691,8.044072l0.030165,0c1.960743,5.510189 5.821897,10.117432 10.847431,12.961011l-0.114628,0.114628c-1.972809,1.970798 -3.209585,4.392063 -3.764626,6.927957c-7.543329,-4.237215 -13.174179,-11.434648 -15.38831,-20.003596l0,0c-0.663636,-2.576114 -1.053773,-5.262834 -1.053773,-8.044072c0,-17.767344 14.402911,-32.172266 32.172266,-32.172266c4.026058,0 7.871125,0.754132 11.420571,2.105536c3.290025,-9.415586 12.224979,-16.182662 22.762713,-16.182662c1.518319,0 2.998428,0.156859 4.438317,0.426336c-0.265454,1.156335 -0.418292,2.358924 -0.418292,3.5957c0,8.884678 7.203467,16.086133 16.088144,16.086133c1.236776,0 2.437354,-0.152837 3.593689,-0.418292c0.269476,1.4419 0.426336,2.922009 0.426336,4.440328c-0.002011,6.304541 -2.437354,12.027899 -6.393026,16.323433zm-21.332879,-31.989264c-5.831952,1.335316 -10.407018,5.852062 -11.913271,11.613629l0,0c3.855122,2.759117 7.080794,6.338729 9.409553,10.499525c1.335316,-0.227245 2.688731,-0.412259 4.0884,-0.412259c5.264845,0 10.119443,1.707354 14.087181,4.567022c1.725453,-1.968787 2.986362,-4.359887 3.591678,-7.002365c-9.761481,-1.819971 -17.445581,-9.50206 -19.263542,-19.265553zm-32.598602,60.328529l4.265369,4.265369c2.356913,2.356913 2.356913,6.173825 0,8.530738c-2.354902,2.356913 -6.173825,2.356913 -8.530738,0c-2.354902,-2.356913 -2.354902,-6.173825 0,-8.530738l4.265369,-4.265369zm14.075115,16.084122l4.265369,4.265369c2.356913,2.356913 2.356913,6.177847 0,8.530738c-2.354902,2.356913 -6.173825,2.356913 -8.530738,0c-2.354902,-2.352891 -2.354902,-6.173825 0,-8.530738l4.265369,-4.265369zm14.075115,-16.084122l4.265369,4.265369c2.356913,2.356913 2.356913,6.173825 0,8.530738c-2.354902,2.356913 -6.173825,2.356913 -8.530738,0c-2.354902,-2.356913 -2.354902,-6.173825 0,-8.530738l4.265369,-4.265369z" clip-rule="evenodd" fill-rule="evenodd"/>
  </g>
 </g>
</svg>