<svg width="100" height="100" xmlns="http://www.w3.org/2000/svg">
 <g>
  <title>background</title>
  <rect x="-1" y="-1" width="102" height="102" id="canvas_background" fill="none"/>
 </g>

 <g>
  <title>Layer 1</title>
  <!-- Created with Method Draw - http://github.com/duopixel/Method-Draw/ -->
  <g stroke="null" id="svg_33">
   <path stroke="null" id="svg_32" d="m95.558327,77.40302l-90.691129,0c-2.503388,0 -4.535123,-2.031735 -4.535123,-4.535123c0,-2.505656 2.031735,-4.535123 4.535123,-4.535123l90.691129,0c2.503388,0 4.535123,2.029468 4.535123,4.535123c0,2.501121 -2.029468,4.535123 -4.535123,4.535123zm0,-18.140493l-90.691129,0c-2.503388,0 -4.535123,-2.029468 -4.535123,-4.535123c0,-2.503388 2.031735,-4.535123 4.535123,-4.535123l90.691129,0c2.503388,0 4.535123,2.031735 4.535123,4.535123c0,2.505656 -2.029468,4.535123 -4.535123,4.535123zm-22.673349,-27.206205c-3.630366,0 -6.990893,1.08843 -9.825345,2.927422c-2.793636,-12.056625 -13.546413,-21.067915 -26.451107,-21.067915c-15.024864,0 -27.206205,12.183609 -27.206205,27.21074l-9.070247,0c0,-20.033907 16.242544,-36.278719 36.276452,-36.278719c13.61444,0 25.46245,7.510164 31.666499,18.603076c1.505661,-0.256234 3.03173,-0.46485 4.609953,-0.46485c11.841207,0 21.886505,7.578191 25.625714,18.140493l-9.934188,0c-3.138305,-5.419472 -8.981812,-9.070247 -15.691527,-9.070247zm-68.01778,54.41241l90.691129,0c2.503388,0 4.535123,2.031735 4.535123,4.535123c0,2.505656 -2.031735,4.535123 -4.535123,4.535123l-90.691129,0c-2.503388,0 -4.535123,-2.029468 -4.535123,-4.535123c0,-2.503388 2.029468,-4.535123 4.535123,-4.535123z" clip-rule="evenodd" fill-rule="evenodd"/>
  </g>
 </g>
</svg>