<svg width="100" height="100" xmlns="http://www.w3.org/2000/svg">

 <g>
  <title>background</title>
  <rect fill="none" id="canvas_background" height="402" width="582" y="-1" x="-1"/>
 </g>
 <g>
  <title>Layer 1</title>
  <g stroke="null" id="svg_19">
   <path stroke="null" id="svg_18" d="m81.406564,70.867782l0,-9.828712c5.355201,-3.107228 8.969457,-8.886448 8.969457,-15.524923c0,-9.911721 -8.03168,-17.947888 -17.943401,-17.947888c-3.594065,0 -6.918911,1.079117 -9.723268,2.89634c-2.763975,-11.926372 -13.400342,-20.841985 -26.168021,-20.841985c-14.867582,0 -26.917345,12.052007 -26.917345,26.919589c0,7.962132 3.47516,15.096418 8.969457,20.025356l0,11.02449c-10.717133,-6.209969 -17.943401,-17.772896 -17.943401,-31.049847c0,-19.823443 16.067847,-35.89129 35.89129,-35.89129c13.46989,0 25.192105,7.430426 31.330283,18.403316c1.489675,-0.253514 2.997297,-0.459915 4.561007,-0.459915c14.867582,0 26.917345,12.05425 26.917345,26.921832c0,11.713241 -7.495487,21.656371 -17.943401,25.353636zm-49.352206,-25.351392c2.476809,0 4.486972,2.00792 4.486972,4.486972l0,8.969457c0,2.479052 -2.010163,4.486972 -4.486972,4.486972c-2.479052,0 -4.486972,-2.00792 -4.486972,-4.486972l0,-8.969457c0,-2.481296 2.00792,-4.486972 4.486972,-4.486972zm0,26.917345c2.476809,0 4.486972,2.00792 4.486972,4.486972l0,8.969457c0,2.479052 -2.010163,4.486972 -4.486972,4.486972c-2.479052,0 -4.486972,-2.00792 -4.486972,-4.486972l0,-8.969457c0,-2.481296 2.00792,-4.486972 4.486972,-4.486972zm17.943401,-17.947888c2.479052,0 4.486972,2.010163 4.486972,4.486972l0,8.973944c0,2.476809 -2.00792,4.486972 -4.486972,4.486972c-2.476809,0 -4.482485,-2.010163 -4.482485,-4.486972l0,-8.973944c0,-2.476809 2.00792,-4.486972 4.482485,-4.486972zm0,26.921832c2.479052,0 4.486972,2.00792 4.486972,4.482485l0,8.973944c0,2.479052 -2.00792,4.486972 -4.486972,4.486972c-2.476809,0 -4.482485,-2.00792 -4.482485,-4.486972l0,-8.973944c0,-2.476809 2.00792,-4.482485 4.482485,-4.482485zm17.947888,-35.89129c2.476809,0 4.486972,2.00792 4.486972,4.486972l0,8.969457c0,2.479052 -2.010163,4.486972 -4.486972,4.486972c-2.479052,0 -4.486972,-2.00792 -4.486972,-4.486972l0,-8.969457c0,-2.481296 2.00792,-4.486972 4.486972,-4.486972zm0,26.917345c2.476809,0 4.486972,2.00792 4.486972,4.486972l0,8.969457c0,2.479052 -2.010163,4.486972 -4.486972,4.486972c-2.479052,0 -4.486972,-2.00792 -4.486972,-4.486972l0,-8.969457c0,-2.481296 2.00792,-4.486972 4.486972,-4.486972z" clip-rule="evenodd" fill-rule="evenodd"/>
  </g>
 </g>
</svg>