<svg width="100" height="100" xmlns="http://www.w3.org/2000/svg">
 <!-- Created with Method Draw - http://github.com/duopixel/Method-Draw/ -->

 <g>
  <title>background</title>
  <rect fill="#fff" id="canvas_background" height="102" width="102" y="-1" x="-1"/>
  <g display="none" overflow="visible" y="0" x="0" height="100%" width="100%" id="canvasGrid">
   <rect fill="url(#gridpattern)" stroke-width="0" y="0" x="0" height="100%" width="100%"/>
  </g>
 </g>
 <g>
  <title>Layer 1</title>
  <!-- Created with Method Draw - http://github.com/duopixel/Method-Draw/ -->
  <!-- Created with Method Draw - http://github.com/duopixel/Method-Draw/ -->
  <g stroke="null" id="svg_30">
   <g stroke="null" transform="matrix(0.25042359852243035,0,0,0.25042359852243035,-243.2030975000072,-242.98833038626435) " id="svg_27">
    <title stroke="null" transform="translate(878.055419921875,0) translate(0,968.0554809570312) ">background</title>
    <rect stroke="null" x="877.05542" y="967.055481" width="582" height="402" id="svg_25" fill="#ffffff"/>
    <g stroke="null" id="svg_24" display="none">
     <rect stroke="null" id="svg_28" width="100" height="100" x="878.05542" y="968.055481" stroke-width="0" fill="url(#gridpattern)"/>
    </g>
   </g>
   <g stroke="null" transform="matrix(0.25042359852243035,0,0,0.25042359852243035,-243.2030975000072,-242.98833038626435) " id="svg_29">
    <title stroke="null" transform="translate(878.055419921875,0) translate(0,968.0554809570312) ">Layer 1</title>
    <g stroke="null" id="svg_22">
     <path stroke="null" fill-rule="evenodd" clip-rule="evenodd" d="m1345.826712,1153.828501l-28.439706,0c-7.851322,0 -14.223409,-6.364976 -14.223409,-14.223409c0,-7.851322 6.372087,-14.223409 14.223409,-14.223409l28.439706,0c7.851322,0 14.223409,6.372087 14.223409,14.223409c0,7.865545 -6.364976,14.223409 -14.223409,14.223409zm-55.869551,-94.671011c-5.554241,5.554241 -14.557659,5.554241 -20.1119,0s-5.554241,-14.557659 0,-20.1119l20.1119,-20.1119c5.554241,-5.554241 14.557659,-5.554241 20.1119,0c5.54713,5.554241 5.54713,14.557659 0,20.1119l-20.1119,20.1119zm-20.965305,110.992372l0,0c6.485875,7.737535 11.592078,16.641389 15.027032,26.348865l-31.199048,0c-9.842599,-16.989862 -28.169462,-28.446818 -49.212995,-28.446818c-11.385839,0 -21.925385,3.413618 -30.822127,9.181211c-8.754508,-37.805821 -42.478211,-66.074847 -82.950921,-66.074847c-47.129266,0 -85.333342,38.211188 -85.333342,85.340454l-28.439706,0c0,-62.839021 50.934028,-113.780161 113.773049,-113.780161c11.179599,0 21.968055,1.649915 32.16624,4.658166c15.610191,-20.1119 39.953556,-33.097873 67.3834,-33.097873c47.129266,0 85.333342,38.196965 85.333342,85.326231c0.007112,10.781344 -2.076618,21.043534 -5.724922,30.544771l-0.000002,0.000001zm-79.601309,-87.424184c-15.73109,0 -29.975835,6.386311 -40.266471,16.719617c16.641389,10.205296 30.473654,24.556716 40.031785,41.624807c4.722172,-0.803623 9.508349,-1.457899 14.458095,-1.457899c15.112372,0 29.285999,3.975443 41.603471,10.859573l0,0c0.682724,-3.513182 1.059644,-7.140151 1.059644,-10.859573c0,-31.419511 -25.467014,-56.886524 -56.886524,-56.886524l0,-0.000001zm0,-56.886524c-7.851322,0 -14.223409,-6.364976 -14.223409,-14.223409l0,-28.439706c0,-7.851322 6.372087,-14.223409 14.223409,-14.223409s14.223409,6.372087 14.223409,14.223409l0,28.439706c0,7.858433 -6.364976,14.223409 -14.223409,14.223409zm-100.566614,33.318336l-20.104789,-20.1119c-5.554241,-5.554241 -5.554241,-14.557659 0,-20.1119c5.54713,-5.554241 14.557659,-5.554241 20.104789,0l20.1119,20.1119c5.554241,5.554241 5.554241,14.557659 0,20.1119c-5.54713,5.554241 -14.550547,5.554241 -20.1119,0zm-98.532666,165.780944l284.432622,0c7.851322,0 14.216297,6.372087 14.216297,14.223409c0,7.858433 -6.372087,14.223409 -14.216297,14.223409l-284.432622,0c-7.851322,0 -14.223409,-6.364976 -14.223409,-14.223409c0,-7.851322 6.364976,-14.223409 14.223409,-14.223409zm0,56.893636l284.432622,0c7.851322,0 14.216297,6.364976 14.216297,14.223409c0,7.851322 -6.372087,14.223409 -14.216297,14.223409l-284.432622,0c-7.851322,0 -14.223409,-6.372087 -14.223409,-14.223409c0,-7.865545 6.364976,-14.223409 14.223409,-14.223409zm0,56.879413l284.432622,0c7.851322,0 14.216297,6.372087 14.216297,14.223409c0,7.858433 -6.372087,14.223409 -14.216297,14.223409l-284.432622,0c-7.851322,0 -14.223409,-6.364976 -14.223409,-14.223409c0,-7.851322 6.364976,-14.223409 14.223409,-14.223409z" id="svg_23"/>
    </g>
   </g>
  </g>
 </g>
</svg>