<svg width="580" height="400" xmlns="http://www.w3.org/2000/svg">
 <!-- Created with Method Draw - http://github.com/duopixel/Method-Draw/ -->

 <g>
  <title>background</title>
  <rect fill="#ffffff" id="canvas_background" height="402" width="582" y="-1" x="-1"/>
  <g display="none" overflow="visible" y="0" x="0" height="100%" width="100%" id="canvasGrid">
   <rect fill="url(#gridpattern)" stroke-width="0" y="0" x="0" height="100%" width="100%"/>
  </g>
 </g>
 <g>
  <title>Layer 1</title>
  <g stroke="null" id="svg_42">
   <path stroke="null" id="svg_41" d="m505.696867,225.525159l-34.595648,0c-9.548399,0 -17.297824,-7.749425 -17.297824,-17.297824c0,-9.548399 7.749425,-17.297824 17.297824,-17.297824l34.595648,0c9.548399,0 17.297824,7.749425 17.297824,17.297824c0,9.53975 -7.749425,17.297824 -17.297824,17.297824zm-67.954502,-115.142967c-6.7548,6.7548 -17.704323,6.7548 -24.459123,0s-6.7548,-17.704323 0,-24.459123l24.459123,-24.459123c6.7548,-6.7548 17.704323,-6.7548 24.459123,0s6.7548,17.704323 0,24.459123l-24.459123,24.459123zm-20.082774,115.142967l-351.500437,0c2.430344,-5.993696 5.301783,-11.753872 8.51053,-17.297824l239.332696,0c0.354605,0.605424 0.812998,1.158954 1.150305,1.773027c5.742878,-0.985976 11.563595,-1.773027 17.583238,-1.773027c18.378938,0 35.624869,4.834742 50.596136,13.206889l0,0c0.830296,-4.272563 1.297337,-8.700806 1.297337,-13.206889c0,-38.210894 -30.980403,-69.182648 -69.191297,-69.182648c-17.514047,0 -33.462641,6.564524 -45.640309,17.289175l-142.352444,0c19.840604,-10.992767 42.639137,-17.289175 66.925282,-17.289175c13.59609,0 26.725138,2.006548 39.119029,5.665037c18.984362,-24.459123 48.589588,-40.252037 81.948442,-40.252037c57.31634,0 103.778296,46.453307 103.778296,103.769647c0,5.907207 -0.579477,11.667382 -1.556804,17.297824zm-102.221492,-155.66312c-9.548399,0 -17.289175,-7.749425 -17.289175,-17.297824l0,-34.586999c0,-9.548399 7.749425,-17.297824 17.289175,-17.297824c9.557048,0 17.297824,7.749425 17.297824,17.297824l0,34.586999c0,9.548399 -7.740776,17.297824 -17.297824,17.297824zm-122.304266,40.520153l-24.450475,-24.459123c-6.7548,-6.7548 -6.7548,-17.704323 0,-24.459123c6.746151,-6.7548 17.704323,-6.7548 24.450475,0l24.459123,24.459123c6.7548,6.7548 6.7548,17.704323 0,24.459123c-6.746151,6.7548 -17.695674,6.7548 -24.459123,0zm-90.069771,63.249494l182.327716,0c6.019643,5.284485 11.563595,11.05331 16.588613,17.297824l-215.522241,0c5.016369,-6.253163 10.594917,-12.00469 16.605911,-17.297824zm331.953895,121.067472l-377.810427,0c-0.709211,-5.673686 -1.202199,-11.416564 -1.202199,-17.297824l374.523841,0c1.971952,5.569899 3.49416,11.347373 4.488785,17.297824zm-331.953895,86.489121l306.863401,0c-5.88126,6.555875 -12.514976,12.40254 -19.883849,17.280526l-262.598269,0c-8.787295,-4.85204 -16.908623,-10.716002 -24.381283,-17.280526zm-28.394378,-34.595648l355.807595,0c-2.127632,6.04559 -4.800146,11.823063 -7.956999,17.297824l-336.062129,0c-4.359052,-5.440166 -8.277009,-11.234937 -11.788467,-17.297824zm-17.462154,-86.489121c0.735158,-5.898558 1.885463,-11.641436 3.347129,-17.280526l352.564253,0c-0.302712,0.847593 -0.536233,1.703836 -0.864891,2.551429l0,0c3.848766,4.575275 7.308331,9.531101 10.326801,14.729097l-365.373292,0zm3.33848,51.893473l375.968209,0c0,5.915856 -0.614073,11.658734 -1.565453,17.297824l-368.789612,0c-2.266015,-5.595846 -4.090935,-11.390617 -5.613144,-17.297824z" clip-rule="evenodd" fill-rule="evenodd"/>
  </g>
 </g>
</svg>