<svg width="100" height="100" xmlns="http://www.w3.org/2000/svg">
 <!-- Created with Method Draw - http://github.com/duopixel/Method-Draw/ -->

 <g>
  <title>Layer 1</title>
  <g stroke="null" id="svg_48">
   <path stroke="null" id="svg_47" d="m92.600235,44.49966l-6.816855,0c-1.881452,0 -3.408428,-1.525271 -3.408428,-3.408428c0,-1.881452 1.526976,-3.405019 3.408428,-3.405019l6.816855,0c1.881452,0 3.406723,1.525271 3.406723,3.405019c0,1.88486 -1.523567,3.408428 -3.406723,3.408428zm-13.390008,-22.686494c-1.330991,1.330991 -3.488526,1.330991 -4.819517,0c-1.330991,-1.329287 -1.330991,-3.488526 0,-4.817812l4.819517,-4.819517c1.330991,-1.330991 3.488526,-1.330991 4.819517,0c1.330991,1.329287 1.330991,3.488526 0,4.819517l-4.819517,4.817812zm-5.022318,26.597664l0,0c2.98067,3.55499 4.782024,8.1291 4.782024,13.132671l0,0c0,8.907925 -5.707412,16.462705 -13.657569,19.266137c-0.046014,-2.27683 -0.739629,-4.533209 -2.082549,-6.487942c5.204669,-1.920649 8.921559,-6.910587 8.921559,-12.778195c0,-7.529216 -6.10279,-13.63371 -13.632006,-13.63371c-2.728446,0 -5.254091,0.821431 -7.384358,2.20014c-2.099591,-9.0596 -10.180973,-15.832146 -19.879654,-15.832146c-11.29212,0 -20.447157,9.155036 -20.447157,20.448861c0,2.392716 0.43287,4.679771 1.187837,6.816855l0.025563,0c1.661608,4.669546 4.933699,8.573899 9.194233,10.983658l-0.098844,0.09714c-1.670129,1.670129 -2.719925,3.722003 -3.190288,5.871016c-6.392506,-3.590778 -11.164304,-9.69016 -13.040644,-16.951814l0,0c-0.562391,-2.183098 -0.893008,-4.459927 -0.893008,-6.816855c0,-15.058433 12.207283,-27.264012 27.264012,-27.264012c2.679024,0 5.264316,0.395378 7.708159,1.114556c3.740749,-4.817812 9.574273,-7.931411 16.147425,-7.931411c11.293825,0 20.448861,9.155036 20.448861,20.447157c-0.001704,2.581884 -0.501039,5.044473 -1.373596,7.317894zm-19.076969,-20.948196c-3.769721,0 -7.181557,1.530384 -9.649258,4.004902c3.98786,2.447251 7.30426,5.88465 9.593019,9.974763c1.131598,-0.192576 2.278534,-0.349364 3.464667,-0.349364c3.623158,0 7.017952,0.952655 9.969651,2.602334l0,0c0.163605,-0.841882 0.253928,-1.711031 0.253928,-2.602334c0,-7.527512 -6.10279,-13.630302 -13.632006,-13.630302zm0,-13.63371c-1.881452,0 -3.406723,-1.525271 -3.406723,-3.406723l0,-6.815151c0,-1.883156 1.525271,-3.408428 3.406723,-3.408428s3.408428,1.525271 3.408428,3.408428l0,6.815151c0,1.881452 -1.525271,3.406723 -3.408428,3.406723zm-24.095879,7.984242l-4.819517,-4.817812c-1.330991,-1.330991 -1.330991,-3.49023 0,-4.819517c1.329287,-1.330991 3.488526,-1.330991 4.819517,0l4.819517,4.819517c1.329287,1.329287 1.329287,3.488526 0,4.817812c-1.330991,1.330991 -3.49023,1.330991 -4.819517,0zm-1.46392,52.016013l3.614637,3.614637c1.997339,1.997339 1.997339,5.231936 0,7.229275c-1.995634,1.997339 -5.231936,1.997339 -7.229275,0c-1.995634,-1.997339 -1.995634,-5.231936 0,-7.229275l3.614637,-3.614637zm11.927792,13.630302l3.614637,3.614637c1.997339,1.997339 1.997339,5.235345 0,7.229275c-1.995634,1.997339 -5.231936,1.997339 -7.229275,0c-1.995634,-1.99393 -1.995634,-5.231936 0,-7.229275l3.614637,-3.614637zm11.927792,-13.630302l3.614637,3.614637c1.997339,1.997339 1.997339,5.231936 0,7.229275c-1.995634,1.997339 -5.231936,1.997339 -7.227571,0c-1.997339,-1.997339 -1.997339,-5.231936 0,-7.229275l3.612933,-3.614637z" clip-rule="evenodd" fill-rule="evenodd"/>
  </g>
 </g>
</svg>