<svg width="100" height="100" xmlns="http://www.w3.org/2000/svg">
 <!-- Created with Method Draw - http://github.com/duopixel/Method-Draw/ -->

 <g>
  <title>Layer 1</title>
  <g stroke="null" id="svg_42">
   <path stroke="null" id="svg_41" d="m91.505063,43.509453l-6.621166,0c-1.827899,0 -3.311411,-1.481856 -3.311411,-3.311411c0,-1.827899 1.483512,-3.309755 3.311411,-3.309755l6.621166,0c1.827899,0 3.311411,1.481856 3.311411,3.309755c0,1.829554 -1.481856,3.311411 -3.311411,3.311411zm-13.007222,-22.040751c-1.293106,1.293106 -3.390885,1.293106 -4.682335,0c-1.293106,-1.29145 -1.293106,-3.389229 0,-4.680679l4.682335,-4.682335c1.29145,-1.293106 3.389229,-1.293106 4.682335,0c1.29145,1.29145 1.29145,3.389229 0,4.682335l-4.682335,4.680679zm-4.879364,25.840595l0,0c2.895829,3.453802 4.644254,7.897715 4.644254,12.75721c0,8.644438 -5.533368,15.980869 -13.243988,18.711127l0,-7.253645c3.95548,-2.293152 6.622822,-6.558249 6.622822,-11.457482c0,-7.314907 -5.930737,-13.245643 -13.243988,-13.245643c-2.650784,0 -5.106196,0.79805 -7.175827,2.137516c-2.038173,-8.80173 -9.889529,-15.381503 -19.312148,-15.381503c-10.97236,0 -19.866809,8.89445 -19.866809,19.866809c0,5.876099 2.567999,11.141242 6.622822,14.778827l0,8.136136c-7.909305,-4.582993 -13.243988,-13.116498 -13.243988,-22.914963c0,-14.629813 11.858162,-26.487975 26.487975,-26.487975c2.602769,0 5.114474,0.384124 7.488756,1.082831c3.634273,-4.680679 9.300097,-7.705653 15.687809,-7.705653c10.97236,0 19.865154,8.89445 19.865154,19.865154c-0.001656,2.508394 -0.485122,4.902544 -1.332843,7.111255zm-18.533967,-20.353587c-3.664076,0 -6.978798,1.486823 -9.37626,3.890908c3.876006,2.377593 7.096353,5.715495 9.321622,9.690844c1.099388,-0.187095 2.212022,-0.33942 3.366049,-0.33942c3.518374,0 6.818195,0.925539 9.685877,2.528262l0,0c0.158948,-0.817918 0.2467,-1.662328 0.2467,-2.528262c0,-7.313251 -5.929081,-13.242332 -13.243988,-13.242332zm0,-13.245643c-1.827899,0 -3.311411,-1.481856 -3.311411,-3.309755l0,-6.621166c0,-1.829554 1.483512,-3.311411 3.311411,-3.311411s3.311411,1.481856 3.311411,3.311411l0,6.621166c0,1.829554 -1.481856,3.309755 -3.311411,3.309755zm-23.411675,7.758636l-4.682335,-4.680679c-1.29145,-1.293106 -1.29145,-3.390885 0,-4.682335c1.293106,-1.293106 3.389229,-1.293106 4.682335,0l4.682335,4.682335c1.293106,1.29145 1.293106,3.389229 0,4.680679c-1.293106,1.293106 -3.389229,1.293106 -4.682335,0zm-3.076301,38.597805c1.827899,0 3.311411,1.481856 3.311411,3.311411l0,6.61951c0,1.829554 -1.483512,3.311411 -3.311411,3.311411s-3.311411,-1.481856 -3.311411,-3.311411l0,-6.61951c0,-1.83121 1.483512,-3.311411 3.311411,-3.311411zm0,19.865154c1.827899,0 3.311411,1.481856 3.311411,3.311411l0,6.61951c0,1.829554 -1.483512,3.311411 -3.311411,3.311411s-3.311411,-1.481856 -3.311411,-3.311411l0,-6.61951c0,-1.83121 1.483512,-3.311411 3.311411,-3.311411zm13.243988,-13.245643c1.827899,0 3.311411,1.483512 3.311411,3.311411l0,6.622822c0,1.827899 -1.483512,3.311411 -3.311411,3.311411s-3.311411,-1.483512 -3.311411,-3.311411l0,-6.622822c0,-1.827899 1.483512,-3.311411 3.311411,-3.311411zm0,19.868465c1.827899,0 3.311411,1.481856 3.311411,3.308099l0,6.622822c0,1.829554 -1.483512,3.311411 -3.311411,3.311411s-3.311411,-1.481856 -3.311411,-3.311411l0,-6.622822c0,-1.827899 1.483512,-3.308099 3.311411,-3.308099zm13.243988,-26.487975c1.827899,0 3.311411,1.481856 3.311411,3.311411l0,6.61951c0,1.829554 -1.483512,3.311411 -3.311411,3.311411s-3.311411,-1.481856 -3.311411,-3.311411l0,-6.61951c0,-1.83121 1.483512,-3.311411 3.311411,-3.311411zm0,19.865154c1.827899,0 3.311411,1.481856 3.311411,3.311411l0,6.61951c0,1.829554 -1.483512,3.311411 -3.311411,3.311411s-3.311411,-1.481856 -3.311411,-3.311411l0,-6.61951c0,-1.83121 1.483512,-3.311411 3.311411,-3.311411z" clip-rule="evenodd" fill-rule="evenodd"/>
  </g>
 </g>
</svg>