<svg width="100" height="100" xmlns="http://www.w3.org/2000/svg">

 <g>
  <title>background</title>
  <rect fill="none" id="canvas_background" height="402" width="582" y="-1" x="-1"/>
 </g>
 <g>
  <title>Layer 1</title>
  <g stroke="null" id="svg_7">
   <path stroke="null" id="svg_6" d="m36.194126,85.890648c-19.629589,0 -35.544332,-15.912521 -35.544332,-35.544332c0,-19.631811 15.914742,-35.544332 35.544332,-35.544332c13.339678,0 24.948575,7.358596 31.027415,18.225413c1.475274,-0.251063 2.972766,-0.455469 4.516916,-0.455469c14.723858,0 26.65936,11.937723 26.65936,26.661581c0,14.719415 -11.935501,26.657138 -26.65936,26.657138c-6.165491,0 -28.43902,0 -35.544332,0zm35.544332,-8.887194c9.815906,0 17.774388,-7.958482 17.774388,-17.769944c0,-9.815906 -7.958482,-17.774388 -17.774388,-17.774388c-3.554878,0 -6.847583,1.068685 -9.627053,2.868342c-2.735034,-11.811081 -13.273024,-20.640508 -25.917279,-20.640508c-14.721637,0 -26.657138,11.935501 -26.657138,26.65936c0,14.721637 11.935501,26.657138 26.657138,26.657138c8.036245,0 28.836722,0 35.544332,0z" clip-rule="evenodd" fill-rule="evenodd"/>
  </g>
 </g>
</svg>