<svg width="580" height="400" xmlns="http://www.w3.org/2000/svg">
 <!-- Created with Method Draw - http://github.com/duopixel/Method-Draw/ -->

 <g>
  <title>background</title>
  <rect fill="#ffffff" id="canvas_background" height="402" width="582" y="-1" x="-1"/>
  <g display="none" overflow="visible" y="0" x="0" height="100%" width="100%" id="canvasGrid">
   <rect fill="url(#gridpattern)" stroke-width="0" y="0" x="0" height="100%" width="100%"/>
  </g>
 </g>
 <g>
  <title>Layer 1</title>
  <g stroke="null" id="svg_18">
   <path stroke="null" id="svg_17" d="m17.268314,291.665821c-3.431411,-8.460656 -6.194876,-17.222542 -8.48685,-26.19398l569.326165,0c0,8.958341 -0.916789,17.654743 -2.370555,26.19398l-558.46876,0zm92.805273,-261.913611c30.044496,-16.646275 64.568162,-26.180883 101.34451,-26.180883c36.750155,0 71.195239,9.560803 101.200443,26.180883l-202.544954,0zm-106.360658,157.150786c1.113244,-8.932147 2.855144,-17.641646 5.068535,-26.180883l529.066017,0c7.216442,8.028455 13.607773,16.777244 19.056121,26.180883l-553.190673,0zm13.555385,-52.374864c3.680254,-9.076214 8.028455,-17.79881 12.887438,-26.19398l362.550883,0c0.52388,0.890595 1.100147,1.768094 1.61093,2.684883c8.696402,-1.493057 17.523773,-2.684883 26.626181,-2.684883c32.100723,0 61.935667,9.665579 86.793754,26.19398l-490.469187,0zm30.738636,-52.387961c7.596254,-9.469124 16.043813,-18.178622 25.146221,-26.19398l276.634628,0c9.036923,7.989164 17.366609,16.764147 24.923572,26.19398l-326.704421,0zm527.717027,157.137689l-572.011048,0c-1.073953,-8.591626 -1.820482,-17.288027 -1.820482,-26.180883l567.073483,0c2.973017,8.421365 5.251893,17.170154 6.758047,26.180883zm-6.758047,78.581941c-3.234957,9.154796 -7.26883,17.903586 -12.062328,26.19398l-508.896652,0c-6.61398,-8.238007 -12.53382,-17.01299 -17.851198,-26.19398l538.810178,0zm-495.812759,52.387961l464.681213,0c-8.905953,9.927519 -18.951345,18.781084 -30.109981,26.180883l-397.650817,0c-13.306542,-7.360509 -25.591519,-16.240268 -36.920415,-26.180883z" clip-rule="evenodd" fill-rule="evenodd"/>
  </g>
 </g>
</svg>