<svg width="100" height="100" xmlns="http://www.w3.org/2000/svg">

 <g>
  <title>background</title>
  <rect fill="none" id="canvas_background" height="402" width="582" y="-1" x="-1"/>
 </g>
 <g>
  <title>Layer 1</title>
  <g stroke="null" id="svg_13">
   <path stroke="null" id="svg_12" d="m72.649079,84.751968c-1.173339,0 -2.915227,0 -5.021802,0l4.759046,-4.761311c1.334164,-1.336429 2.330823,-2.878985 2.994507,-4.525737c8.707175,-1.322838 15.387054,-8.818166 15.387054,-17.890027c0,-10.007361 -8.111444,-18.121071 -18.118806,-18.121071c-3.508692,0 -6.754629,1.037431 -9.529418,2.765728c-0.314854,-1.26621 -0.810918,-2.446345 -1.451951,-3.542669c-3.936803,-10.136474 -13.728976,-17.3396 -25.256243,-17.3396c-15.011042,0 -27.177076,12.166034 -27.177076,27.177076c0,10.446797 5.898409,19.502803 14.537629,24.051192c0.441701,2.720426 1.676199,5.332125 3.773713,7.427374l4.464579,4.464579c-17.933065,-2.172263 -31.836457,-17.421145 -31.836457,-35.943144c0,-20.012458 16.222889,-36.237612 36.237612,-36.237612c13.599864,0 25.435188,7.502123 31.632595,18.583158c1.504049,-0.258225 3.026219,-0.464352 4.605017,-0.464352c15.011042,0 27.177076,12.168299 27.177076,27.181607c0,15.004247 -12.166034,27.174811 -27.177076,27.174811zm-32.291749,-17.572909l5.080695,5.07843l0,-26.789738c0,-2.500708 2.027295,-4.528003 4.528003,-4.528003s4.530268,2.027295 4.530268,4.528003l0,26.789738l5.07843,-5.07843c1.766804,-1.76907 4.638994,-1.76907 6.405799,0s1.766804,4.636729 0,6.405799l-12.811597,12.811597c-1.766804,1.76907 -4.636729,1.76907 -6.405799,0l-12.809332,-12.811597c-1.76907,-1.76907 -1.76907,-4.636729 0,-6.405799c1.766804,-1.76907 4.634464,-1.76907 6.403533,0z" fill="#231F20" clip-rule="evenodd" fill-rule="evenodd"/>
  </g>
 </g>
</svg>