<svg width="100" height="100" xmlns="http://www.w3.org/2000/svg">
 <g>
  <title>background</title>
  <rect x="-1" y="-1" width="102" height="102" id="canvas_background" fill="none"/>
 </g>

 <g>
  <title>Layer 1</title>
  <!-- Created with Method Draw - http://github.com/duopixel/Method-Draw/ -->
  <g stroke="null" id="svg_27">
   <path stroke="null" id="svg_26" d="m72.379859,72.385455c-0.626793,0 -1.452816,0 -2.377335,0l8.025186,-9.876463c7.120813,-2.366143 12.260514,-9.072825 12.260514,-16.986083c0,-9.889894 -8.016231,-17.903887 -17.906125,-17.903887c-3.583911,0 -6.901436,1.074502 -9.699618,2.887724c-2.757888,-11.900108 -13.373071,-20.796088 -26.112633,-20.796088c-14.832602,0 -26.858069,12.025466 -26.858069,26.862546c0,12.191119 8.130397,22.47052 19.260445,25.752227l-3.019798,8.454986c-14.595317,-4.5241 -25.194829,-18.127741 -25.194829,-34.209452c0,-19.777549 16.034701,-35.814489 35.812251,-35.814489c13.440227,0 25.136627,7.414063 31.261288,18.365027c1.486394,-0.255194 2.992935,-0.458902 4.550963,-0.458902c14.834841,0 26.860307,12.023228 26.860307,26.858069s-12.027705,26.864784 -26.862546,26.864784zm-26.858069,-31.339637l22.380978,0l-13.429034,22.385455l15.66758,0l-29.096614,35.812251l8.058764,-26.858069l-14.7744,0l11.192727,-31.339637z" clip-rule="evenodd" fill-rule="evenodd"/>
  </g>
 </g>
</svg>