<svg width="100" height="100" xmlns="http://www.w3.org/2000/svg">
 <g>
  <title>background</title>
  <rect x="-1" y="-1" width="102" height="102" id="canvas_background" fill="none"/>
 </g>

 <g>
  <title>Layer 1</title>
  <!-- Created with Method Draw - http://github.com/duopixel/Method-Draw/ -->
  <g stroke="null" id="svg_39">
   <path stroke="null" id="svg_38" d="m91.342687,43.383418l-6.615756,0c-1.825949,0 -3.307878,-1.480275 -3.307878,-3.307878c0,-1.825949 1.481929,-3.307878 3.307878,-3.307878l6.615756,0c1.825949,0 3.307878,1.481929 3.307878,3.307878c0,1.829257 -1.481929,3.307878 -3.307878,3.307878zm-12.994999,-22.017237c-1.291726,1.291726 -3.385613,1.291726 -4.67734,0c-1.291726,-1.290072 -1.291726,-3.385613 0,-4.67734l4.67734,-4.67734c1.291726,-1.290072 3.385613,-1.290072 4.67734,0c1.291726,1.291726 1.291726,3.387267 0,4.67734l-4.67734,4.67734zm-4.874158,25.813027l0,0c2.894393,3.446809 4.639299,7.889289 4.639299,12.741947c0,8.638524 -5.527464,15.96382 -13.228205,18.691165l0,-7.245907c3.95126,-2.287398 6.615756,-6.551253 6.615756,-11.445258c0,-7.305449 -5.92441,-13.229859 -13.231513,-13.229859c-2.646303,0 -5.100748,0.793891 -7.168172,2.135235c-2.034345,-8.793994 -9.878978,-15.365094 -19.291545,-15.365094c-10.960654,0 -19.843961,8.884961 -19.843961,19.843961c0,5.871484 2.56526,11.127702 6.615756,14.761406l0,8.130764c-7.900867,-4.578103 -13.231513,-13.102505 -13.231513,-22.892171c0,-14.612552 11.845512,-26.458063 26.459717,-26.458063c2.599992,0 5.110672,0.38206 7.480766,1.081676c3.630396,-4.675686 9.290176,-7.697432 15.671073,-7.697432c10.960654,0 19.843961,8.883307 19.843961,19.843961c-0.001654,2.507372 -0.48295,4.89566 -1.331421,7.103668zm-18.514194,-20.331873c-3.656859,0 -6.971353,1.485237 -9.364603,3.886757c3.870217,2.373403 7.087129,5.709398 9.310023,9.682159c1.098216,-0.186895 2.21297,-0.339058 3.362458,-0.339058c3.514621,0 6.812575,0.924552 9.675544,2.525565l0,0c0.158778,-0.817046 0.248091,-1.660555 0.248091,-2.525565c0,-7.308757 -5.92441,-13.229859 -13.231513,-13.229859zm0,-13.231513c-1.825949,0 -3.307878,-1.480275 -3.307878,-3.307878l0,-6.614102c0,-1.825949 1.481929,-3.306224 3.307878,-3.306224c1.827603,0 3.307878,1.480275 3.307878,3.306224l0,6.614102c0,1.829257 -1.478622,3.307878 -3.307878,3.307878zm-23.386699,7.750359l-4.67734,-4.67734c-1.288419,-1.290072 -1.288419,-3.385613 0,-4.67734c1.291726,-1.290072 3.388921,-1.290072 4.67734,0l4.67734,4.67734c1.291726,1.291726 1.291726,3.387267 0,4.67734c-1.291726,1.291726 -3.385613,1.291726 -4.67734,0zm-3.073019,38.554974c1.827603,0 3.307878,1.481929 3.307878,3.307878l0,26.459717c0,1.827603 -1.480275,3.307878 -3.307878,3.307878c-1.825949,0 -3.307878,-1.480275 -3.307878,-3.307878l0,-26.459717c0,-1.825949 1.483583,-3.307878 3.307878,-3.307878zm13.231513,6.615756c1.825949,0 3.307878,1.480275 3.307878,3.307878l0,26.459717c0,1.825949 -1.481929,3.307878 -3.307878,3.307878c-1.827603,0 -3.307878,-1.481929 -3.307878,-3.307878l0,-26.459717c0,-1.829257 1.480275,-3.307878 3.307878,-3.307878zm13.228205,-6.615756c1.827603,0 3.307878,1.481929 3.307878,3.307878l0,26.459717c0,1.827603 -1.480275,3.307878 -3.307878,3.307878c-1.825949,0 -3.307878,-1.480275 -3.307878,-3.307878l0,-26.459717c0,-1.825949 1.483583,-3.307878 3.307878,-3.307878z" clip-rule="evenodd" fill-rule="evenodd"/>
  </g>
 </g>
</svg>