<svg width="100" height="100" xmlns="http://www.w3.org/2000/svg">

 <g>
  <title>background</title>
  <rect fill="none" id="canvas_background" height="402" width="582" y="-1" x="-1"/>
 </g>
 <g>
  <title>Layer 1</title>
  <path stroke="null" id="svg_1" d="m95.548316,54.398981l-8.321774,0c-2.30004,0 -4.162969,-1.862929 -4.162969,-4.160887s1.862929,-4.162969 4.162969,-4.162969l8.321774,0c2.30004,0 4.162969,1.86501 4.162969,4.162969s-1.860847,4.160887 -4.162969,4.160887zm-16.35006,-27.706638c-1.625639,1.625639 -4.264961,1.625639 -5.886438,0c-1.625639,-1.625639 -1.625639,-4.260798 0,-5.886438l5.886438,-5.886438c1.621476,-1.625639 4.260798,-1.625639 5.886438,0c1.621476,1.625639 1.621476,4.260798 0,5.886438l-5.886438,5.886438zm-29.43427,48.519401c-13.793997,0 -24.977812,-11.181734 -24.977812,-24.973649c0,-13.793997 11.181734,-24.975731 24.977812,-24.975731c13.793997,0 24.973649,11.181734 24.973649,24.975731c0,13.791915 -11.179653,24.973649 -24.973649,24.973649zm0,-41.623443c-9.195998,0 -16.651875,7.453796 -16.651875,16.649793c0,9.193916 7.457958,16.649793 16.651875,16.649793s16.647712,-7.455877 16.647712,-16.649793c0,-9.195998 -7.451714,-16.649793 -16.647712,-16.649793zm0,-16.649793c-2.30004,0 -4.162969,-1.86501 -4.162969,-4.162969l0,-8.323856c0,-2.297959 1.862929,-4.162969 4.162969,-4.162969c2.297959,0 4.162969,1.86501 4.162969,4.162969l0,8.323856c0,2.297959 -1.867091,4.162969 -4.162969,4.162969zm-29.43427,9.753836l-5.886438,-5.886438c-1.625639,-1.625639 -1.625639,-4.260798 0,-5.886438s4.260798,-1.625639 5.886438,0l5.886438,5.886438c1.625639,1.625639 1.625639,4.260798 0,5.886438s-4.260798,1.625639 -5.886438,0zm-3.867398,23.545751c0,2.297959 -1.86501,4.160887 -4.162969,4.160887l-8.325937,0c-2.297959,0 -4.160887,-1.862929 -4.160887,-4.160887s1.86501,-4.162969 4.160887,-4.162969l8.325937,0c2.30004,0 4.162969,1.86501 4.162969,4.162969zm3.867398,23.545751c1.625639,-1.623558 4.260798,-1.623558 5.886438,0c1.625639,1.625639 1.625639,4.26288 0,5.886438l-5.886438,5.886438c-1.625639,1.625639 -4.260798,1.625639 -5.886438,0c-1.625639,-1.623558 -1.625639,-4.260798 0,-5.886438l5.886438,-5.886438zm29.43427,9.753836c2.297959,0 4.162969,1.862929 4.162969,4.160887l0,8.325937c0,2.297959 -1.86501,4.162969 -4.162969,4.162969c-2.30004,0 -4.162969,-1.86501 -4.162969,-4.162969l0,-8.325937c0,-2.297959 1.862929,-4.160887 4.162969,-4.160887zm29.43427,-9.753836l5.886438,5.886438c1.621476,1.625639 1.621476,4.26288 0,5.886438c-1.625639,1.625639 -4.264961,1.625639 -5.886438,0l-5.886438,-5.886438c-1.625639,-1.623558 -1.625639,-4.260798 0,-5.886438c1.621476,-1.625639 4.258717,-1.625639 5.886438,0z" clip-rule="evenodd" fill-rule="evenodd"/>
 </g>
</svg>